<?xml version="1.0" standalone="no"?><!DOCTYPE svg PUBLIC "-//W3C//DTD SVG 1.1//EN" "http://www.w3.org/Graphics/SVG/1.1/DTD/svg11.dtd">
<svg version="1.1" xmlns="http://www.w3.org/2000/svg" xmlns:xlink="http://www.w3.org/1999/xlink" viewBox="0 0 141.92651045288764 141.9265104528875">
  <path d="M4.257795313586625 3.164251550547135L4.257795313586625 3.164251550547135L4.257795313586625 3.164251550547135L4.257795313586625 3.164251550547135Q5.6770604181154996 1.7449864460182738 8.51559062717325 1.7449864460182738Q11.354120836230999 1.7449864460182738 12.773385940759873 3.164251550547135L12.773385940759873 3.164251550547135L70.96325522644374 61.354120836231004L129.15312451212762 3.164251550547135Q130.5723896166565 1.7449864460182738 133.41091982571425 1.7449864460182738Q136.249450034772 1.7449864460182738 138.3783476915653 3.873884102811573Q140.5072453483586 6.002781759604886 140.5072453483586 8.1316794163982Q140.5072453483586 10.260577073191499 137.66871513930087 13.099107282249264L137.66871513930087 13.099107282249264L79.47884585361699 71.28897656793313L137.66871513930087 129.47884585361697Q140.5072453483586 130.89811095814588 140.5072453483586 133.02700861493918Q140.5072453483586 135.15590627173248 139.08798024382972 137.99443648079026L139.08798024382972 137.99443648079026L137.66871513930087 137.99443648079026Q136.249450034772 139.41370158531913 133.41091982571425 139.41370158531913Q130.5723896166565 139.41370158531913 129.15312451212762 137.99443648079026L129.15312451212762 137.99443648079026L70.96325522644374 79.80456719510639L12.773385940759873 137.99443648079026Q11.354120836230999 139.41370158531913 8.51559062717325 139.41370158531913Q5.6770604181154996 139.41370158531913 3.5481627613221867 137.99443648079026Q1.4192651045288749 136.57517137626138 1.4192651045288749 133.73664116720363Q1.4192651045288749 130.89811095814588 4.257795313586625 129.47884585361697L4.257795313586625 129.47884585361697L62.447664599270496 71.28897656793313L4.257795313586625 13.099107282249264Q2.8385302090577498 11.679842177720388 2.1288976567933124 8.841311968662637Q1.4192651045288749 6.002781759604886 4.257795313586625 3.164251550547135z"/>
</svg>
